<svg width="247" height="37" fill="none" xmlns="http://www.w3.org/2000/svg"><g clip-path="url(#clip0_71_564)"><path d="M98.028 9.708L91.18 27.55 84.248 9.708h-8.38l11.179 27.246h7.918l11.077-27.246h-8.014zM132.51 9.5h-7.405v27.49h7.405V9.5zm54.672 0h-7.406v27.49h7.406V9.5zm-37.901 6.035l-3.947 14.216-4.016-14.228-7.811-.011 7.006 21.477h9.005l6.972-21.454h-7.209zm40.238 0L189.507 37h7.412V15.535h-7.4zm7.4-6.035h-7.412v4.037h7.412V9.5zm16.815 6.046h-14.45V36.99h7.394V19.974h5.558V36.99h7.395V20.992c0-4.295-2.653-5.447-5.897-5.447zm-41.701 21.442c3.615 0 5.406-1.761 5.406-5.066V20.809c0-4.388-2.816-5.274-5.479-5.274h-9.653c-2.647 0-5.485.886-5.485 5.274v11.113c0 3.305 1.796 5.066 5.412 5.066h9.799zm-7.738-4.456V19.95h5.693v12.58h-5.693zM122.689 21.01c0-4.3-2.692-5.481-6.307-5.481H105.8l-1.65 4.03h11.156v3.052h-7.473c-3.052 0-5.891 1.03-5.891 5.487v4.163c0 3.213 1.864 4.716 5.705 4.716h15.036l.006-15.967zM115.3 32.526h-6.267v-5.861h6.273l-.006 5.861zm106.521-11.222v10.197a5.61 5.61 0 001.127 3.668c.963 1.152 2.489 1.82 5.231 1.82h11.798l1.054-4.031h-11.827v-3.455h7.839c3.261 0 5.266-1.25 5.266-4.986v-4.013c0-3.893-2.517-4.975-5.823-4.975h-8.369c-3.705.017-6.296 1.64-6.296 5.775zm7.383-1.319h6.268v5.453h-6.268v-5.453zm13.651 15.483v-.466h1.69v.466h-.563v1.492h-.564v-1.492h-.563zm2.658-.466l.349 1.152.344-1.152H247v1.958h-.507v-1.422l-.394 1.422h-.434l-.416-1.417v1.417h-.507v-1.958h.771zM24.627 36.994H48.64L36.633 18.54 24.627 36.994z" fill="#0E3C7B"/><path d="M24.65 0H0l24.627 36.994L36.633 18.54 24.65 0z" fill="#E1251B"/><path d="M48.719 0L36.633 18.54 48.64 36.994 73.368 0h-24.65z" fill="#0082CA"/><path d="M52.413 35.699v-.415h1.498v.415h-.507v1.313h-.467v-1.313h-.524zm2.343-.415l.31.99.303-.996h.704v1.728h-.45v-1.261l-.372 1.25h-.377l-.366-1.25v1.25h-.445v-1.728l.693.017z" fill="#0E3C7B"/></g><defs><clipPath id="clip0_71_564"><path fill="#fff" d="M0 0h247v37H0z"/></clipPath></defs></svg>