<svg width="130" height="51" fill="none" xmlns="http://www.w3.org/2000/svg"><g clip-path="url(#clip0_1_680)"><path d="M.823 1.53H20.84v8.627H10.568v9.71h9.816v8.627h-9.816v20.503H.823V1.53zm24.012 10.233c0-2.2.246-4.052.771-5.484.526-1.432 1.262-2.584 2.314-3.423 1.017-.838 2.314-1.432 3.891-1.746C33.39.76 35.247.621 37.385.621s3.996.175 5.574.49c1.577.348 2.874.907 3.89 1.745 1.017.839 1.789 1.991 2.314 3.423.526 1.432.772 3.284.772 5.484v27c0 2.2-.246 4.051-.772 5.483-.525 1.432-1.262 2.585-2.313 3.423-1.017.838-2.314 1.432-3.891 1.746-1.578.35-3.436.49-5.574.49s-3.996-.175-5.574-.49c-1.577-.349-2.874-.908-3.89-1.746-1.017-.838-1.789-1.991-2.314-3.423-.526-1.432-.772-3.283-.772-5.484V11.763zm9.745 26.93c0 .943.21 1.606.632 1.99.42.385 1.156.594 2.173.594 1.017 0 1.753-.21 2.173-.594.42-.384.631-1.047.631-1.99v-26.86c0-.943-.21-1.607-.63-1.99-.421-.385-1.157-.595-2.174-.595s-1.753.21-2.173.594c-.421.384-.632 1.048-.632 1.99v26.86zm20.543 10.304V1.53h12.479c2.138 0 3.996.14 5.539.454 1.542.314 2.84.838 3.82 1.572 1.017.733 1.753 1.711 2.244 2.968.49 1.258.736 2.83.736 4.716v5.658c0 .699-.105 1.467-.28 2.235a6.945 6.945 0 01-.912 2.166 5.346 5.346 0 01-1.717 1.711c-.701.49-1.613.804-2.734 1.013v.14c1.998.35 3.47 1.257 4.451 2.655.947 1.432 1.438 3.667 1.438 6.706v10.303c0 1.817.035 3.04.07 3.703.035.628.245 1.152.596 1.502h-9.816c-.385-.699-.596-1.362-.596-1.921V30.939c0-1.607-1.051-2.41-3.12-2.41h-2.453v20.468h-9.745zm9.745-29.095h2.454c1.016 0 1.752-.28 2.208-.873.456-.56.666-1.921.666-3.982 0-1.956-.175-3.248-.56-3.877-.386-.629-1.158-.978-2.314-.978h-2.454v9.71zm27.623 4.366L82.956 1.53h10.201l4.733 12.888-.14-.14v.14h.14l4.522-12.888h10.201l-9.535 22.738 10.551 24.729h-10.341L97.82 34.432l-5.4 14.565H82.08l10.41-24.73z" fill="#000"/><path fill-rule="evenodd" clip-rule="evenodd" d="M128.177 1.53l-9.535 22.738 10.551 24.729h-10.341l-10.586-24.73 9.71-22.737" fill="#EB2227"/></g><defs><clipPath id="clip0_1_680"><path fill="#fff" transform="translate(.542 .098)" d="M0 0h129.001v50.121H0z"/></clipPath></defs></svg>