<svg xmlns="http://www.w3.org/2000/svg" width="185" height="66"><path fill="#2b2d7f" d="M71.68 16.48c5.38 0 8 2.08 8 4.91s-2.64 4.91-8 4.91h-5.32l-6.62 13.88h12.82c5.76 0 8.21 2 8.21 4.81s-2.45 4.82-8.21 4.82H55.1l-8 16.62h23.57c18.47 0 27.66-8 27.66-18.47A18.15 18.15 0 0089.66 32c4.89-3.24 8.08-8 8.08-13.64C97.74 7 87.92 0 72.34 0H48.76l-15 31.4L18.8 0H0l24.16 51.22L17 66.43h18.5l23.88-49.95zm32.81 11.84h62.77l-7.32-15.48A24.67 24.67 0 00138.08 0h-37.93A25.3 25.3 0 01107 17.32a26.22 26.22 0 01-2.51 11zm.51 9.79a24.77 24.77 0 012.52 11 22.82 22.82 0 01-7.39 17.32h85.11l-13.35-28.32z"/></svg>