<svg xmlns="http://www.w3.org/2000/svg"><symbol viewBox="0 0 25 18" id="lang__us"><mask id="mask0_1_1053" style="mask-type:alpha" maskUnits="userSpaceOnUse" x="0" y="0" width="25" height="18"><path d="M22.619 0H2.381A2.381 2.381 0 000 2.381v13.095a2.38 2.38 0 002.381 2.381h20.238A2.38 2.38 0 0025 15.477V2.38A2.381 2.381 0 0022.619 0z" fill="#fff"/></mask><g mask="url(#mask0_1_1053)"><path d="M22.619 0H2.381A2.381 2.381 0 000 2.381v13.095a2.38 2.38 0 002.381 2.381h20.238A2.38 2.38 0 0025 15.477V2.38A2.381 2.381 0 0022.619 0z" fill="#fff"/><path fill-rule="evenodd" clip-rule="evenodd" d="M0 0h10.714v8.333H0V0z" fill="#444379"/><path fill-rule="evenodd" clip-rule="evenodd" d="M1.19 1.19v1.19h1.19V1.19H1.19zm2.381 0v1.19h1.19V1.19h-1.19zm2.381 0v1.19h1.19V1.19h-1.19zm2.381 0v1.19h1.19V1.19h-1.19zm-1.19 1.19v1.191h1.19v-1.19h-1.19zm-2.381 0v1.191h1.19v-1.19h-1.19zm-2.381 0v1.191h1.19v-1.19h-1.19zM1.19 3.572v1.19h1.19v-1.19H1.19zm2.38 0v1.19h1.19v-1.19H3.57zm2.381 0v1.19h1.19v-1.19h-1.19zm2.381 0v1.19h1.19v-1.19h-1.19zM1.19 5.952v1.19h1.19v-1.19H1.19zm2.381 0v1.19h1.19v-1.19h-1.19zm2.381 0v1.19h1.19v-1.19h-1.19zm2.381 0v1.19h1.19v-1.19h-1.19zm-1.19-1.19v1.19h1.19v-1.19h-1.19zm-2.381 0v1.19h1.19v-1.19h-1.19zm-2.381 0v1.19h1.19v-1.19h-1.19z" fill="#A7B6E7"/><path fill-rule="evenodd" clip-rule="evenodd" d="M10.714 0v1.19H25V0H10.714zm0 2.381v1.19H25v-1.19H10.714zm0 2.38v1.191H25v-1.19H10.714zm0 2.382v1.19H25v-1.19H10.714zM0 9.523v1.191h25v-1.19H0zm0 2.382v1.19h25v-1.19H0zm0 2.38v1.191h25v-1.19H0zm0 2.382v1.19h25v-1.19H0z" fill="#ED4C49"/><path d="M22.619.595H2.381c-.986 0-1.786.8-1.786 1.786v13.095c0 .986.8 1.786 1.786 1.786h20.238c.986 0 1.786-.8 1.786-1.786V2.381c0-.986-.8-1.786-1.786-1.786z" stroke="#000" stroke-opacity=".1"/></g></symbol><symbol viewBox="0 0 25 18" id="lang__ua"><mask id="mask0_75_2566" style="mask-type:alpha" maskUnits="userSpaceOnUse" x="0" y="0" width="25" height="18"><path d="M22.619 0H2.381A2.381 2.381 0 000 2.381v13.095a2.38 2.38 0 002.381 2.381h20.238A2.38 2.38 0 0025 15.477V2.38A2.381 2.381 0 0022.619 0z" fill="#fff"/></mask><g mask="url(#mask0_75_2566)"><path d="M22.619 0H2.381A2.381 2.381 0 000 2.381v13.095a2.38 2.38 0 002.381 2.381h20.238A2.38 2.38 0 0025 15.477V2.38A2.381 2.381 0 0022.619 0z" fill="#FFDA00"/><path fill-rule="evenodd" clip-rule="evenodd" d="M0 0h25v9.524H0V0z" fill="#0266C3"/><path d="M22.619.595H2.381c-.986 0-1.786.8-1.786 1.786v13.095c0 .986.8 1.786 1.786 1.786h20.238c.986 0 1.786-.8 1.786-1.786V2.381c0-.986-.8-1.786-1.786-1.786z" stroke="#000" stroke-opacity=".1"/></g></symbol><symbol viewBox="0 0 20 16" id="fatal__arrow"><path d="M19.286 7.945H1M11.286 15l8-7.055-8-7.054" stroke="#fff" stroke-linecap="round" stroke-linejoin="round"/></symbol><symbol viewBox="0 0 23 22" id="footer__tel"><path d="M6.937 7.95c1.38 3.767 2.81 5.27 6.447 6.871l-1.576 2.214c-4.176-2-6.256-5.37-7.236-8l2.365-1.084z" fill="#fff"/><path d="M8.095 2.75c.739-.002 1.3.612 1.25 1.308-.08 1.095.005 1.884.232 2.863.124.538-.158 1.084-.606 1.436-.604.475-1.066 1.079-1.433 1.599-.509.72-2.26.669-2.646-.116-.796-1.614-1.335-4.588-.173-6.597.182-.316.55-.481.93-.483l2.446-.01zm11.208 11.945c.092-.692-.486-1.292-1.224-1.329a10.354 10.354 0 01-2.982-.562c-.55-.181-1.159.018-1.582.396-.572.51-1.262.87-1.853 1.151-.82.39-.975 2.038-.196 2.495 1.601.94 4.662 1.803 6.914.956a.993.993 0 00.619-.815l.304-2.292z" fill="#fff"/></symbol><symbol viewBox="0 0 18 15" id="footer__mail"><path fill-rule="evenodd" clip-rule="evenodd" d="M16.349.91a1.68 1.68 0 011.32.628L8.915 8.543.24 1.666C.53 1.213 1.053.91 1.65.91h14.7zM0 12.57V2.908l6.224 4.935-6.211 4.924A1.52 1.52 0 010 12.57zm.57 1.19c.29.24.667.386 1.081.386H16.35a1.7 1.7 0 00.954-.29L10.69 8.563l-1.19.951a.942.942 0 01-1.164.003L7.129 8.56l-6.56 5.2zm11.019-5.917l6.366 5.094c.03-.118.045-.24.045-.367V2.713l-6.411 5.13z" fill="#fff"/></symbol><symbol viewBox="0 0 16 21" id="footer__place"><path fill-rule="evenodd" clip-rule="evenodd" d="M8.002 20.979C4.942 17.616-.266 12.842.011 7.649.463 3.427 3.868.146 8.002.146c4.135 0 7.54 3.28 7.992 7.503.191 5.67-4.513 9.593-7.992 13.33z" fill="#fff"/><path d="M11.525 8.265A3.264 3.264 0 118.263 5a3.264 3.264 0 013.262 3.265z" fill="#FF5B01"/></symbol><symbol viewBox="0 0 26 24" id="footer__send"><path d="M24.102.266L1.012 9.944s-1.092.4-1.007 1.137c.086.738.977 1.076.977 1.076l5.81 2.088s1.754 6.144 2.1 7.313c.344 1.166.621 1.194.621 1.194.322.149.614-.089.614-.089l3.753-3.655 5.85 4.792c1.583.737 2.16-.8 2.16-.8L26 .852c0-1.475-1.898-.585-1.898-.585zM20.014 21.22l-6.259-5.125-1.942 1.891.427-4.023L20.583 6 9.21 12.799l-5.044-1.813 19.245-8.067-3.398 18.3z" fill="#fff"/></symbol><symbol viewBox="0 0 32 32" id="facebook"><path fill-rule="evenodd" clip-rule="evenodd" d="M0 5a5 5 0 015-5h22a5 5 0 015 5v22a5 5 0 01-5 5H5a5 5 0 01-5-5V5zm16 3c4.4 0 8 3.6 8 8 0 4-2.9 7.4-6.9 8v-5.7H19l.4-2.3h-2.2v-1.5c0-.6.3-1.2 1.3-1.2h1v-2s-.9-.2-1.8-.2c-1.8 0-3 1.1-3 3.1V16h-2v2.3h2v5.6C10.9 23.3 8 20 8 16c0-4.4 3.6-8 8-8z" fill="currentColor" fill-opacity=".8"/></symbol><symbol viewBox="0 0 32 32" id="linkedin"><path fill-rule="evenodd" clip-rule="evenodd" d="M0 5a5 5 0 015-5h22a5 5 0 015 5v22a5 5 0 01-5 5H5a5 5 0 01-5-5V5zm8.2 8.3V24h3.4V13.3H8.2zM8 9.9c0 1.1.8 1.9 1.9 1.9 1.1 0 1.9-.8 1.9-1.9C11.8 8.8 11 8 9.9 8 8.9 8 8 8.8 8 9.9zM20.6 24h3.2v-6.6c0-3.3-2-4.4-3.9-4.4-1.7 0-2.9 1.1-3.2 1.8v-1.5h-3.2V24h3.4v-5.7c0-1.5 1-2.3 2-2.3s1.7.5 1.7 2.2V24z" fill="currentColor" fill-opacity=".8"/></symbol><symbol viewBox="0 0 32 32" id="instagram"><path d="M16 18.8c-1.5 0-2.8-1.2-2.8-2.8 0-1.5 1.2-2.8 2.8-2.8 1.5 0 2.8 1.2 2.8 2.8 0 1.5-1.3 2.8-2.8 2.8z" fill="currentColor" fill-opacity=".8"/><path fill-rule="evenodd" clip-rule="evenodd" d="M19.4 9.2h-6.8c-.8.1-1.2.2-1.5.3-.4.1-.7.3-1 .6-.237.237-.35.475-.485.762-.036.075-.073.155-.115.238a5.48 5.48 0 01-.052.148A3.53 3.53 0 009.2 12.6v6.8c.1.8.2 1.2.3 1.5.1.4.3.7.6 1 .237.237.475.35.762.485.075.036.155.073.238.115.046.015.095.033.148.052a3.53 3.53 0 001.352.248h6.8c.8-.1 1.2-.2 1.5-.3.4-.1.7-.3 1-.6.237-.237.35-.475.485-.762.036-.075.073-.155.115-.238.015-.046.033-.095.052-.147A3.53 3.53 0 0022.8 19.4v-6.8c-.1-.8-.2-1.2-.3-1.5-.1-.4-.3-.7-.6-1-.237-.237-.475-.35-.762-.485A11.461 11.461 0 0120.9 9.5c-.046-.015-.095-.033-.147-.052A3.53 3.53 0 0019.4 9.2zM16 11.7c-2.4 0-4.3 1.9-4.3 4.3s1.9 4.3 4.3 4.3 4.3-1.9 4.3-4.3-1.9-4.3-4.3-4.3zm5.4-.1a1 1 0 11-2 0 1 1 0 012 0z" fill="currentColor" fill-opacity=".8"/><path fill-rule="evenodd" clip-rule="evenodd" d="M0 5a5 5 0 015-5h22a5 5 0 015 5v22a5 5 0 01-5 5H5a5 5 0 01-5-5V5zm12.6 2.7h6.8c.9.1 1.5.2 2 .4.6.3 1 .5 1.5 1s.8 1 1 1.5c.2.5.4 1.1.4 2v6.8c-.1.9-.2 1.5-.4 2-.3.6-.5 1-1 1.5s-1 .8-1.5 1c-.5.2-1.1.4-2 .4h-6.8c-.9-.1-1.5-.2-2-.4-.6-.3-1-.5-1.5-1s-.8-1-1-1.5c-.2-.5-.4-1.1-.4-2v-6.8c.1-.9.2-1.5.4-2 .3-.6.5-1 1-1.5s1-.8 1.5-1c.5-.2 1.1-.4 2-.4z" fill="currentColor" fill-opacity=".8"/></symbol><symbol viewBox="0 0 32 32" id="telegram"><path fill-rule="evenodd" clip-rule="evenodd" d="M5 0h22a5 5 0 015 5v22a5 5 0 01-5 5H5a5 5 0 01-5-5V5a5 5 0 015-5zm11.692 12.007c-1.433.596-4.297 1.83-8.592 3.701-.698.278-1.063.549-1.096.814-.056.449.505.625 1.27.866.104.032.212.066.322.102.752.245 1.764.53 2.29.542.477.01 1.01-.186 1.598-.59 4.013-2.709 6.084-4.078 6.214-4.108.092-.02.22-.047.305.03.087.076.078.221.069.26-.056.237-2.26 2.287-3.4 3.347-.356.33-.608.565-.66.619-.115.12-.233.233-.346.342-.699.674-1.223 1.179.029 2.004.602.396 1.083.724 1.563 1.051.525.358 1.048.714 1.725 1.158.172.113.337.23.497.344.61.436 1.16.826 1.837.764.393-.036.8-.406 1.007-1.51.488-2.61 1.447-8.263 1.669-10.592a2.602 2.602 0 00-.025-.58.621.621 0 00-.21-.4c-.176-.143-.448-.173-.57-.17-.554.009-1.405.305-5.496 2.006z" fill="currentColor" fill-opacity=".8"/></symbol><symbol viewBox="0 0 32 32" id="whatsapp"><path fill-rule="evenodd" clip-rule="evenodd" d="M12.6 21.7c1 .6 2.2.9 3.4.9 3.7 0 6.6-3 6.6-6.5 0-1.8-.6-3.4-1.9-4.7-1.3-1.2-2.9-1.9-4.7-1.9-3.6 0-6.6 3-6.6 6.6 0 1.2.3 2.4 1 3.5l.2.3-.7 2.4 2.5-.7.2.1zm5.6-4.7c.2 0 1.2.5 1.4.6.031.016.062.029.093.042.167.07.323.136.407.558.1 0 .1.4-.1.9-.1.4-.9.9-1.3.9-.068 0-.133.006-.202.012-.34.03-.786.07-2.198-.512-1.753-.701-2.968-2.4-3.309-2.877a1.856 1.856 0 00-.091-.123c-.017-.034-.052-.088-.097-.16-.221-.35-.703-1.11-.703-1.94 0-1 .5-1.5.7-1.7.2-.2.4-.2.5-.2h.4c.1 0 .3 0 .4.3.2.4.6 1.4.6 1.5 0 .033.011.067.022.1.023.067.045.133-.022.2-.05.05-.075.1-.1.15-.025.05-.05.1-.1.15l-.3.3c-.1.1-.2.2-.1.4s.5.9 1.1 1.4c.675.59 1.208.825 1.478.944.05.022.09.04.122.056.2 0 .3 0 .4-.1.05-.1.175-.25.3-.4.125-.15.25-.3.3-.4.1-.2.2-.2.4-.1z" fill="currentColor" fill-opacity=".8"/><path fill-rule="evenodd" clip-rule="evenodd" d="M0 16C0 7.163 7.163 0 16 0s16 7.163 16 16-7.163 16-16 16S0 24.837 0 16zm16-8c2.1 0 4.1.8 5.6 2.3 1.5 1.5 2.4 3.5 2.4 5.6 0 4.4-3.6 8-8 8-1.3 0-2.6-.4-3.8-1L8 24l1.1-4C8.4 18.8 8 17.4 8 16c0-4.4 3.6-8 8-8z" fill="currentColor" fill-opacity=".8"/></symbol><symbol viewBox="0 0 20 17" id="arrow__send"><path d="M19.286 8.734H1M11.286 16l8-7.266-8-7.266" stroke="#fff" stroke-linecap="round" stroke-linejoin="round"/></symbol><symbol viewBox="0 0 21 17" id="arrow__why"><path d="M19.286 8.055H1m10.286 7.055l8-7.055-8-7.055" stroke="#fff" stroke-width="2" stroke-linecap="round" stroke-linejoin="round"/></symbol><symbol viewBox="0 0 113 75" id="user-check"><path d="M53.675 86.633c-3.767-3.766-3.767-9.416 0-13.183 3.767-3.767 9.417-3.767 13.183 0l2.825 2.825 8.946-9.888c-3.296-1.883-6.12-1.883-9.416-1.883-3.296-.47-6.592-1.412-6.592-4.237s3.767-1.884 6.592-7.063c0 0 12.712-34.37-13.655-34.37-25.895 0-13.183 34.37-13.183 34.37 2.825 4.708 6.592 3.767 6.592 7.063 0 3.295-3.296 3.295-6.592 3.766-5.18.471-9.887-.47-14.596 8.004-2.825 5.18-4.237 22.13-4.237 22.13h37.666l-7.533-7.534zm24.955 7.534h9.887s-.471-4.238-.942-9.417l-8.946 9.417z" fill="#fff"/><path d="M70.154 94.167c-1.412 0-2.354-.471-3.296-1.413l-9.416-9.416c-1.884-1.884-1.884-4.709 0-6.592 1.883-1.883 4.708-1.883 6.591 0l6.121 6.12 15.538-16.95c1.883-1.883 4.708-1.883 6.591-.47 1.884 1.883 1.884 4.708.471 6.591L73.921 92.283c-1.413 1.413-2.354 1.884-3.767 1.884z" fill="#fff"/></symbol><symbol viewBox="0 0 113 75" id="drop"><path d="M56.5 18.833S32.958 57.442 32.958 70.625 43.317 94.167 56.5 94.167c13.183 0 23.542-10.359 23.542-23.542 0-13.183-23.542-51.792-23.542-51.792zm4.237 70.154l-.941-4.708c6.592-1.412 11.3-8.004 11.3-15.067 0-1.412-.471-5.179-3.767-12.241l4.238-1.884c2.825 6.592 3.766 11.3 3.766 14.125 0 9.417-6.12 17.892-14.596 19.775z" fill="#fff"/></symbol><symbol viewBox="0 0 113 75" id="thumbs-up"><path d="M92.283 57.442s2.354-2.355 1.884-7.534c0-7.062-7.534-7.533-7.534-7.533h-11.3c-.941 0-1.412-.942-1.412-1.883 1.412-3.296 3.766-9.888 2.825-14.596-1.413-6.592-7.063-7.063-8.946-7.063-.47 0-.942.471-.942.942L62.15 32.958s0 .471-.47.471L49.436 46.612c-.47.471-.941.471-1.412.471h-.942v32.959h.942c3.296 0 15.067 9.416 25.425 9.416s12.712-1.412 14.596-4.708c1.883-3.296.47-6.12.47-6.12s2.355-1.413 2.826-4.71c.47-3.295-.471-5.178-.471-5.178s2.354-1.884 2.354-5.65c.47-4.238-.942-5.65-.942-5.65zM18.833 84.75h23.542V47.083H18.833V84.75zm11.771-16.48c2.825 0 4.708 1.884 4.708 4.71 0 2.824-1.883 4.707-4.708 4.707s-4.708-1.883-4.708-4.708 1.883-4.708 4.708-4.708z" fill="#fff"/></symbol><symbol viewBox="0 0 113 75" id="truck"><path d="M47.083 23.542h47.084V56.5H47.083V23.542zm42.375 51.791a9.414 9.414 0 01-9.416 9.417 9.414 9.414 0 01-9.417-9.417 9.414 9.414 0 019.417-9.416 9.414 9.414 0 019.416 9.416zm-9.416-14.125c6.12 0 11.3 3.767 13.183 9.417h.942v-9.417H80.042z" fill="#FCFCFC"/><path d="M42.375 32.958H23.542l-4.709 18.834v18.833h5.65c1.884-5.65 7.063-9.417 13.184-9.417 6.12 0 11.3 3.767 13.183 9.417h16.008c1.884-5.65 7.063-9.417 13.184-9.417H42.375v-28.25zm-4.708 18.834H23.542l3.766-14.125h10.359v14.125z" fill="#FCFCFC"/><path d="M47.083 75.333a9.414 9.414 0 01-9.416 9.417 9.414 9.414 0 01-9.417-9.417 9.414 9.414 0 019.417-9.416 9.414 9.414 0 019.416 9.416z" fill="#FCFCFC"/></symbol><symbol viewBox="0 0 20 16" id="arrow__product"><path d="M19.286 7.994H1m10.286 6.994l8-6.994-8-6.994" stroke="#fff" stroke-linecap="round" stroke-linejoin="round"/></symbol><symbol id="brands-prev"><path d="M12.359 1.558L1 14.43 12.36 27.3" stroke="#FF4401" stroke-width="2" stroke-linecap="round" stroke-linejoin="round"/></symbol><symbol id="brands-next"><path d="M1 26.743L12.359 13.87 1 1" stroke="#FF4401" stroke-width="2" stroke-linecap="round" stroke-linejoin="round"/></symbol><symbol viewBox="0 0 21 33" id="header-tel"><path d="M16.042 0H4.375A4.37 4.37 0 000 4.375v23.333a4.37 4.37 0 004.375 4.375h11.667a4.37 4.37 0 004.375-4.375V4.375A4.37 4.37 0 0016.042 0zm-2.917 29.167H7.292v-1.459h5.833v1.459zm4.74-4.375H2.552V4.375h15.313v20.417z" fill="#fff"/></symbol><symbol viewBox="0 0 19 19" id="popup-close"><path d="M9.5 7.438L16.718.219l2.062 2.062-7.218 7.22 7.218 7.218-2.062 2.062L9.5 11.562l-7.22 7.219-2.06-2.062L7.437 9.5.22 2.281 2.28.22 9.5 7.438z" fill="currentColor"/></symbol></svg>