<svg width="247" height="37" viewBox="0 0 247 37" fill="none" xmlns="http://www.w3.org/2000/svg">
<g clip-path="url(#clip0_71_564)">
<path d="M98.0285 9.70776L91.1805 27.5514L84.248 9.70776H75.8683L87.0469 36.954H94.9649L106.042 9.70776H98.0285Z" fill="#0E3C7B"/>
<path d="M132.51 9.50049H125.105V36.9885H132.51V9.50049Z" fill="#0E3C7B"/>
<path d="M187.182 9.50049H179.776V36.9885H187.182V9.50049Z" fill="#0E3C7B"/>
<path d="M149.281 15.5347L145.334 29.7509L141.318 15.5232L133.507 15.5117L140.513 36.9885H149.518L156.49 15.5347H149.281Z" fill="#0E3C7B"/>
<path d="M189.519 15.5347L189.507 37H196.919V15.5347H189.519Z" fill="#0E3C7B"/>
<path d="M196.919 9.50049H189.507V13.5367H196.919V9.50049Z" fill="#0E3C7B"/>
<path d="M213.734 15.5463H199.284V36.9885H206.678V19.9741H212.236V36.9885H219.631V20.9932C219.631 16.6978 216.978 15.5463 213.734 15.5463Z" fill="#0E3C7B"/>
<path d="M172.033 36.9884C175.648 36.9884 177.439 35.2265 177.439 31.9215C177.439 29.0426 177.439 20.8089 177.439 20.8089C177.439 16.4214 174.623 15.5347 171.96 15.5347H162.307C159.66 15.5347 156.822 16.4214 156.822 20.8089C156.822 20.8089 156.822 29.0138 156.822 31.9215C156.822 35.2265 158.618 36.9884 162.234 36.9884H172.033ZM164.295 32.5319V19.9509H169.988V32.5319H164.295Z" fill="#0E3C7B"/>
<path d="M122.689 21.0104C122.689 16.7093 119.997 15.5289 116.382 15.5289H105.8L104.15 19.5594H115.306V22.6111H107.833C104.781 22.6111 101.942 23.6418 101.942 28.0983C101.942 30.6951 101.942 32.2613 101.942 32.2613C101.942 35.4742 103.806 36.977 107.647 36.977H122.683L122.689 21.0104ZM115.3 32.5261H109.033V26.6646H115.306L115.3 32.5261Z" fill="#0E3C7B"/>
<path d="M221.821 21.3041V31.5012C221.755 32.8222 222.155 34.1236 222.948 35.169C223.911 36.3206 225.437 36.9885 228.179 36.9885H239.977L241.031 32.958H229.204V29.5033H237.043C240.304 29.5033 242.309 28.2538 242.309 24.5169V20.5037C242.309 16.6114 239.792 15.5289 236.486 15.5289H228.117C224.412 15.5462 221.821 17.1699 221.821 21.3041ZM229.204 19.9855H235.472V25.4382H229.204V19.9855Z" fill="#0E3C7B"/>
<path d="M242.855 35.4685V35.0021H244.545V35.4685H243.982V36.9597H243.418V35.4685H242.855ZM245.513 35.0021L245.862 36.1536L246.206 35.0021H247V36.9597H246.493V35.5376L246.099 36.9597H245.665L245.249 35.5433V36.9597H244.742V35.0021H245.513Z" fill="#0E3C7B"/>
<path d="M24.6268 36.9942H48.6398L36.6333 18.5403L24.6268 36.9942Z" fill="#0E3C7B"/>
<path d="M24.6493 0H0L24.6268 36.9942L36.6333 18.5403L24.6493 0Z" fill="#E1251B"/>
<path d="M48.7186 0L36.6333 18.5403L48.6398 36.9942L73.3679 0H48.7186Z" fill="#0082CA"/>
<path d="M52.4128 35.6987V35.2841H53.9108V35.6987H53.404V37.0115H52.9366V35.6987H52.4128ZM54.7556 35.2841L55.0653 36.2745L55.3694 35.2784H56.0734V37.0057H55.6228V35.7447L55.2511 36.9942H54.8738L54.5078 35.7447V36.9942H54.0629V35.2668L54.7556 35.2841Z" fill="#0E3C7B"/>
</g>
<defs>
<clipPath id="clip0_71_564">
<rect width="247" height="37" fill="white"/>
</clipPath>
</defs>
</svg>
