<svg width="130" height="51" viewBox="0 0 130 51" fill="none" xmlns="http://www.w3.org/2000/svg">
<g clip-path="url(#clip0_1_680)">
<path d="M0.823242 1.52979H20.8395V10.157H10.5684V19.8669H20.3838V28.4941H10.5684V48.9968H0.823242V1.52979Z" fill="black"/>
<path d="M24.8353 11.7631C24.8353 9.56263 25.0807 7.71145 25.6065 6.27941C26.1323 4.84737 26.8685 3.69475 27.9201 2.85648C28.9367 2.01821 30.2337 1.42443 31.8112 1.11008C33.3887 0.760805 35.2466 0.621094 37.3849 0.621094C39.5232 0.621094 41.3811 0.795733 42.9586 1.11008C44.5361 1.45936 45.8331 2.01821 46.8497 2.85648C47.8663 3.69475 48.6375 4.84737 49.1633 6.27941C49.6891 7.71145 49.9345 9.56263 49.9345 11.7631V38.7623C49.9345 40.9628 49.6891 42.814 49.1633 44.246C48.6375 45.678 47.9013 46.8307 46.8497 47.6689C45.8331 48.5072 44.5361 49.101 42.9586 49.4153C41.3811 49.7646 39.5232 49.9043 37.3849 49.9043C35.2466 49.9043 33.3887 49.7297 31.8112 49.4153C30.2337 49.066 28.9367 48.5072 27.9201 47.6689C26.9036 46.8307 26.1323 45.678 25.6065 44.246C25.0807 42.814 24.8353 40.9628 24.8353 38.7623V11.7631ZM34.5805 38.6925C34.5805 39.6355 34.7909 40.2991 35.2115 40.6834C35.6322 41.0676 36.3683 41.2771 37.3849 41.2771C38.4015 41.2771 39.1376 41.0676 39.5583 40.6834C39.9789 40.2991 40.1893 39.6355 40.1893 38.6925V11.8329C40.1893 10.8899 39.9789 10.2263 39.5583 9.84205C39.1376 9.45784 38.4015 9.24828 37.3849 9.24828C36.3683 9.24828 35.6322 9.45784 35.2115 9.84205C34.7909 10.2263 34.5805 10.8899 34.5805 11.8329V38.6925Z" fill="black"/>
<path d="M55.1226 48.9968V1.52979H67.602C69.7404 1.52979 71.5983 1.6695 73.1407 1.98385C74.6831 2.2982 75.9801 2.82212 76.9616 3.5556C77.9782 4.28909 78.7144 5.26707 79.2051 6.52447C79.6959 7.78187 79.9413 9.35363 79.9413 11.2397V16.898C79.9413 17.5966 79.8361 18.365 79.6608 19.1334C79.4856 19.9018 79.1701 20.6353 78.7494 21.299C78.3288 21.9626 77.7679 22.5564 77.0317 23.0104C76.3306 23.4994 75.4192 23.8138 74.2975 24.0233V24.163C76.2956 24.5123 77.7679 25.4204 78.7494 26.8176C79.6959 28.2496 80.1867 30.485 80.1867 33.5237V43.8274C80.1867 45.6437 80.2217 46.8662 80.2568 47.5298C80.2918 48.1585 80.5021 48.6824 80.8527 49.0317H71.0374C70.6518 48.3331 70.4415 47.6695 70.4415 47.1107V30.9391C70.4415 29.3324 69.3898 28.529 67.3216 28.529H64.8678V48.9968H55.1226ZM64.8678 19.9018H67.3216C68.3382 19.9018 69.0743 19.6224 69.53 19.0286C69.9857 18.4698 70.1961 17.1076 70.1961 15.0469C70.1961 13.0909 70.0208 11.7986 69.6352 11.1699C69.2496 10.5412 68.4784 10.1919 67.3216 10.1919H64.8678V19.9018Z" fill="black"/>
<path d="M92.4913 24.2678L82.9564 1.52979H93.1574L97.8897 14.4182L97.7495 14.2785V14.4182H97.8897L102.412 1.52979H112.613L103.078 24.2678L113.629 48.9968H103.288L97.8196 34.4318L92.4212 48.9968H82.0801L92.4913 24.2678Z" fill="black"/>
<path fill-rule="evenodd" clip-rule="evenodd" d="M128.177 1.52979L118.642 24.2678L129.193 48.9968H118.852L108.266 24.2678L117.976 1.52979" fill="#EB2227"/>
</g>
<defs>
<clipPath id="clip0_1_680">
<rect width="129.001" height="50.1215" fill="white" transform="translate(0.542114 0.0976562)"/>
</clipPath>
</defs>
</svg>
