<svg xmlns="http://www.w3.org/2000/svg">
    <symbol viewBox="0 0 25 18" id="lang__us">
        <mask id="mask0_1_1053" style="mask-type:alpha" maskUnits="userSpaceOnUse" x="0" y="0" width="25" height="18">
            <path d="M22.619 0H2.38095C1.06599 0 0 1.06599 0 2.38095V15.4762C0 16.7912 1.06599 17.8571 2.38095 17.8571H22.619C23.934 17.8571 25 16.7912 25 15.4762V2.38095C25 1.06599 23.934 0 22.619 0Z"
                  fill="white"/>
        </mask>
        <g mask="url(#mask0_1_1053)">
            <path d="M22.619 0H2.38095C1.06599 0 0 1.06599 0 2.38095V15.4762C0 16.7912 1.06599 17.8571 2.38095 17.8571H22.619C23.934 17.8571 25 16.7912 25 15.4762V2.38095C25 1.06599 23.934 0 22.619 0Z"
                  fill="white"/>
            <path fill-rule="evenodd" clip-rule="evenodd" d="M0 0H10.7143V8.33333H0V0Z" fill="#444379"/>
            <path fill-rule="evenodd" clip-rule="evenodd"
                  d="M1.19043 1.19043V2.38091H2.38091V1.19043H1.19043ZM3.57138 1.19043V2.38091H4.76186V1.19043H3.57138ZM5.95233 1.19043V2.38091H7.14281V1.19043H5.95233ZM8.33329 1.19043V2.38091H9.52376V1.19043H8.33329ZM7.14281 2.38091V3.57138H8.33329V2.38091H7.14281ZM4.76186 2.38091V3.57138H5.95233V2.38091H4.76186ZM2.38091 2.38091V3.57138H3.57138V2.38091H2.38091ZM1.19043 3.57138V4.76186H2.38091V3.57138H1.19043ZM3.57138 3.57138V4.76186H4.76186V3.57138H3.57138ZM5.95233 3.57138V4.76186H7.14281V3.57138H5.95233ZM8.33329 3.57138V4.76186H9.52376V3.57138H8.33329ZM1.19043 5.95233V7.14281H2.38091V5.95233H1.19043ZM3.57138 5.95233V7.14281H4.76186V5.95233H3.57138ZM5.95233 5.95233V7.14281H7.14281V5.95233H5.95233ZM8.33329 5.95233V7.14281H9.52376V5.95233H8.33329ZM7.14281 4.76186V5.95233H8.33329V4.76186H7.14281ZM4.76186 4.76186V5.95233H5.95233V4.76186H4.76186ZM2.38091 4.76186V5.95233H3.57138V4.76186H2.38091Z"
                  fill="#A7B6E7"/>
            <path fill-rule="evenodd" clip-rule="evenodd"
                  d="M10.7143 0V1.19048H25V0H10.7143ZM10.7143 2.38095V3.57143H25V2.38095H10.7143ZM10.7143 4.7619V5.95238H25V4.7619H10.7143ZM10.7143 7.14286V8.33333H25V7.14286H10.7143ZM0 9.52381V10.7143H25V9.52381H0ZM0 11.9048V13.0952H25V11.9048H0ZM0 14.2857V15.4762H25V14.2857H0ZM0 16.6667V17.8571H25V16.6667H0Z"
                  fill="#ED4C49"/>
            <path d="M22.619 0.595215H2.38093C1.39471 0.595215 0.595215 1.39471 0.595215 2.38093V15.4762C0.595215 16.4624 1.39471 17.2619 2.38093 17.2619H22.619C23.6052 17.2619 24.4047 16.4624 24.4047 15.4762V2.38093C24.4047 1.39471 23.6052 0.595215 22.619 0.595215Z"
                  stroke="black" stroke-opacity="0.1"/>
        </g>
    </symbol>
    <symbol viewBox="0 0 25 18" id="lang__ua">
        <mask id="mask0_75_2566" style="mask-type:alpha" maskUnits="userSpaceOnUse" x="0" y="0" width="25" height="18">
            <path d="M22.619 0H2.38095C1.06599 0 0 1.06599 0 2.38095V15.4762C0 16.7912 1.06599 17.8571 2.38095 17.8571H22.619C23.934 17.8571 25 16.7912 25 15.4762V2.38095C25 1.06599 23.934 0 22.619 0Z"
                  fill="white"/>
        </mask>
        <g mask="url(#mask0_75_2566)">
            <path d="M22.619 0H2.38095C1.06599 0 0 1.06599 0 2.38095V15.4762C0 16.7912 1.06599 17.8571 2.38095 17.8571H22.619C23.934 17.8571 25 16.7912 25 15.4762V2.38095C25 1.06599 23.934 0 22.619 0Z"
                  fill="#FFDA00"/>
            <path fill-rule="evenodd" clip-rule="evenodd" d="M0 0H25V9.52381H0V0Z" fill="#0266C3"/>
            <path d="M22.619 0.595215H2.38093C1.39471 0.595215 0.595215 1.39471 0.595215 2.38093V15.4762C0.595215 16.4624 1.39471 17.2619 2.38093 17.2619H22.619C23.6052 17.2619 24.4047 16.4624 24.4047 15.4762V2.38093C24.4047 1.39471 23.6052 0.595215 22.619 0.595215Z"
                  stroke="black" stroke-opacity="0.1"/>
        </g>
    </symbol>
    <symbol viewBox="0 0 20 16" id="fatal__arrow">
        <path d="M19.2857 7.94531L1 7.94531" stroke="white" stroke-linecap="round" stroke-linejoin="round"/>
        <path d="M11.2856 15L19.2856 7.94539L11.2856 0.890779" stroke="white" stroke-linecap="round"
              stroke-linejoin="round"/>
    </symbol>
    <symbol viewBox="0 0 23 22" id="footer__tel">
        <path d="M6.93688 7.95069C8.31769 11.7175 9.74719 13.2205 13.3838 14.8213L11.8078 17.0346C7.63182 15.0354 5.55186 11.6652 4.57226 9.03526L6.93688 7.95069Z"
              fill="white"/>
        <path d="M8.09516 2.75056C8.83351 2.74768 9.39492 3.36206 9.34459 4.05775C9.26538 5.15253 9.34971 5.9424 9.57677 6.92147C9.70149 7.45928 9.41933 8.00549 8.97092 8.35732C8.36653 8.83152 7.9048 9.43575 7.53782 9.95589C7.02917 10.6768 5.27872 10.625 4.8916 9.83964C4.09602 8.22552 3.55686 5.25177 4.71864 3.24264C4.90112 2.92705 5.26856 2.76162 5.6493 2.76013L8.09516 2.75056Z"
              fill="white"/>
        <path d="M19.3031 14.6951C19.3949 14.0032 18.8166 13.4029 18.0792 13.3664C16.9189 13.3091 16.0987 13.135 15.0969 12.8044C14.5465 12.6228 13.9384 12.8216 13.5147 13.1997C12.9435 13.7093 12.2528 14.0696 11.6619 14.3511C10.8429 14.7413 10.6869 16.3886 11.4659 16.846C13.067 17.786 16.1281 18.6492 18.3797 17.8015C18.7334 17.6684 18.9515 17.3438 18.9989 16.987L19.3031 14.6951Z"
              fill="white"/>
    </symbol>
    <symbol viewBox="0 0 18 15" id="footer__mail">
        <path fill-rule="evenodd" clip-rule="evenodd"
              d="M16.3486 0.910156C16.888 0.910156 17.3669 1.15686 17.6683 1.53845L8.91569 8.54263L0.241069 1.66564C0.531108 1.21257 1.05423 0.910156 1.65138 0.910156H16.3486ZM0 12.5698V2.9085L6.22427 7.84293L0.0128308 12.7672C0.00436429 12.7025 0 12.6367 0 12.5698ZM0.569248 13.7601C0.859065 14.0001 1.23743 14.1455 1.65138 14.1455H16.3486C16.7044 14.1455 17.0339 14.0381 17.3035 13.8555L10.6895 8.56269L9.50009 9.51448C9.16371 9.78367 8.67368 9.78475 8.336 9.51704L7.12868 8.55992L0.569248 13.7601ZM11.5889 7.84293L17.9549 12.9372C17.9844 12.8193 18 12.6963 18 12.5698V2.71252L11.5889 7.84293Z"
              fill="white"/>
    </symbol>
    <symbol viewBox="0 0 16 21" id="footer__place">
        <path fill-rule="evenodd" clip-rule="evenodd"
              d="M8.00248 20.9787C4.9411 17.6157 -0.265814 12.8417 0.010574 7.64866C0.462757 3.42677 3.86837 0.145508 8.00248 0.145508C12.1366 0.145508 15.5422 3.42677 15.9944 7.64866C16.185 13.3189 11.4807 17.2424 8.00248 20.9787Z"
              fill="white"/>
        <path d="M11.5254 8.265C11.5254 10.0682 10.0646 11.53 8.26268 11.53C6.46075 11.53 5 10.0682 5 8.265C5 6.46179 6.46075 5 8.26268 5C10.0646 5 11.5254 6.46179 11.5254 8.265Z"
              fill="#FF5B01"/>
    </symbol>
    <symbol viewBox="0 0 26 24" id="footer__send">
        <path d="M24.102 0.26639L1.01183 9.94404C1.01183 9.94404 -0.0798356 10.3437 0.00466402 11.0807C0.0914386 11.819 0.98226 12.1568 0.98226 12.1568L6.79226 14.2455C6.79226 14.2455 8.54595 20.3892 8.8911 21.5582C9.23625 22.724 9.51315 22.7515 9.51315 22.7515C9.83457 22.9007 10.1267 22.6631 10.1267 22.6631L13.8805 19.0077L19.7308 23.7997C21.3132 24.5371 21.8891 23.0009 21.8891 23.0009L26 0.851239C26 -0.624137 24.102 0.26639 24.102 0.26639ZM20.0142 21.2195L13.7554 16.0943L11.8132 17.985L12.2402 13.9624L20.5829 6L9.2109 12.7989L4.1666 10.9858L23.412 2.91899L20.0142 21.2195Z"
              fill="white"/>
    </symbol>
    <symbol viewBox="0 0 32 32" id="facebook">
        <path fill-rule="evenodd" clip-rule="evenodd"
              d="M0 5C0 2.23858 2.23858 0 5 0H27C29.7614 0 32 2.23858 32 5V27C32 29.7614 29.7614 32 27 32H5C2.23858 32 0 29.7614 0 27V5ZM16 8C20.4 8 24 11.6 24 16C24 20 21.1 23.4 17.1 24V18.3H19L19.4 16H17.2V14.5C17.2 13.9 17.5 13.3 18.5 13.3H19.5V11.3C19.5 11.3 18.6 11.1 17.7 11.1C15.9 11.1 14.7 12.2 14.7 14.2V16H12.7V18.3H14.7V23.9C10.9 23.3 8 20 8 16C8 11.6 11.6 8 16 8Z"
              fill="currentColor" fill-opacity="0.8"/>
    </symbol>
    <symbol viewBox="0 0 32 32" id="linkedin">
        <path fill-rule="evenodd" clip-rule="evenodd"
              d="M0 5C0 2.23858 2.23858 0 5 0H27C29.7614 0 32 2.23858 32 5V27C32 29.7614 29.7614 32 27 32H5C2.23858 32 0 29.7614 0 27V5ZM8.2 13.3V24H11.6V13.3H8.2ZM8 9.9C8 11 8.8 11.8 9.9 11.8C11 11.8 11.8 11 11.8 9.9C11.8 8.8 11 8 9.9 8C8.9 8 8 8.8 8 9.9ZM20.6 24H23.8V17.4C23.8 14.1 21.8 13 19.9 13C18.2 13 17 14.1 16.7 14.8V13.3H13.5V24H16.9V18.3C16.9 16.8 17.9 16 18.9 16C19.9 16 20.6 16.5 20.6 18.2V24Z"
              fill="currentColor" fill-opacity="0.8"/>
    </symbol>
    <symbol viewBox="0 0 32 32" id="instagram">
        <path d="M16 18.8C14.5 18.8 13.2 17.6 13.2 16C13.2 14.5 14.4 13.2 16 13.2C17.5 13.2 18.8 14.4 18.8 16C18.8 17.5 17.5 18.8 16 18.8Z"
              fill="currentColor" fill-opacity="0.8"/>
        <path fill-rule="evenodd" clip-rule="evenodd"
              d="M19.4 9.2H12.6C11.8 9.3 11.4 9.4 11.1 9.5C10.7 9.6 10.4 9.8 10.1 10.1C9.86261 10.3374 9.75045 10.5748 9.61489 10.8617C9.57916 10.9373 9.5417 11.0166 9.5 11.1C9.48453 11.1464 9.46667 11.1952 9.44752 11.2475C9.34291 11.5333 9.2 11.9238 9.2 12.6V19.4C9.3 20.2 9.4 20.6 9.5 20.9C9.6 21.3 9.8 21.6 10.1 21.9C10.3374 22.1374 10.5748 22.2495 10.8617 22.3851C10.9374 22.4209 11.0165 22.4583 11.1 22.5C11.1464 22.5155 11.1952 22.5333 11.2475 22.5525C11.5333 22.6571 11.9238 22.8 12.6 22.8H19.4C20.2 22.7 20.6 22.6 20.9 22.5C21.3 22.4 21.6 22.2 21.9 21.9C22.1374 21.6626 22.2495 21.4252 22.3851 21.1383C22.4209 21.0626 22.4583 20.9835 22.5 20.9C22.5155 20.8536 22.5333 20.8048 22.5525 20.7525C22.6571 20.4667 22.8 20.0762 22.8 19.4V12.6C22.7 11.8 22.6 11.4 22.5 11.1C22.4 10.7 22.2 10.4 21.9 10.1C21.6626 9.86261 21.4252 9.75045 21.1383 9.61488C21.0627 9.57918 20.9833 9.54167 20.9 9.5C20.8536 9.48453 20.8048 9.46666 20.7525 9.44752C20.4667 9.3429 20.0762 9.2 19.4 9.2ZM16 11.7C13.6 11.7 11.7 13.6 11.7 16C11.7 18.4 13.6 20.3 16 20.3C18.4 20.3 20.3 18.4 20.3 16C20.3 13.6 18.4 11.7 16 11.7ZM21.4 11.6C21.4 12.1523 20.9523 12.6 20.4 12.6C19.8477 12.6 19.4 12.1523 19.4 11.6C19.4 11.0477 19.8477 10.6 20.4 10.6C20.9523 10.6 21.4 11.0477 21.4 11.6Z"
              fill="currentColor" fill-opacity="0.8"/>
        <path fill-rule="evenodd" clip-rule="evenodd"
              d="M0 5C0 2.23858 2.23858 0 5 0H27C29.7614 0 32 2.23858 32 5V27C32 29.7614 29.7614 32 27 32H5C2.23858 32 0 29.7614 0 27V5ZM12.6 7.7H19.4C20.3 7.8 20.9 7.9 21.4 8.1C22 8.4 22.4 8.6 22.9 9.1C23.4 9.6 23.7 10.1 23.9 10.6C24.1 11.1 24.3 11.7 24.3 12.6V19.4C24.2 20.3 24.1 20.9 23.9 21.4C23.6 22 23.4 22.4 22.9 22.9C22.4 23.4 21.9 23.7 21.4 23.9C20.9 24.1 20.3 24.3 19.4 24.3H12.6C11.7 24.2 11.1 24.1 10.6 23.9C10 23.6 9.6 23.4 9.1 22.9C8.6 22.4 8.3 21.9 8.1 21.4C7.9 20.9 7.7 20.3 7.7 19.4V12.6C7.8 11.7 7.9 11.1 8.1 10.6C8.4 10 8.6 9.6 9.1 9.1C9.6 8.6 10.1 8.3 10.6 8.1C11.1 7.9 11.7 7.7 12.6 7.7Z"
              fill="currentColor" fill-opacity="0.8"/>

    </symbol>
    <symbol viewBox="0 0 32 32" id="telegram">
        <path fill-rule="evenodd" clip-rule="evenodd"
              d="M5 0H27C29.7614 0 32 2.23858 32 5V27C32 29.7614 29.7614 32 27 32H5C2.23858 32 0 29.7614 0 27V5C0 2.23858 2.23858 0 5 0ZM16.6919 12.0074C15.2589 12.6034 12.3949 13.8371 8.09992 15.7083C7.40248 15.9856 7.03714 16.257 7.00388 16.5223C6.94767 16.9706 7.50915 17.1472 8.27374 17.3876C8.37774 17.4203 8.4855 17.4542 8.59598 17.4901C9.34822 17.7346 10.3601 18.0207 10.8862 18.0321C11.3633 18.0424 11.8959 17.8457 12.4839 17.4419C16.4968 14.7331 18.5683 13.3639 18.6983 13.3344C18.7901 13.3136 18.9172 13.2874 19.0034 13.3639C19.0895 13.4405 19.0811 13.5855 19.0719 13.6244C19.0163 13.8615 16.8123 15.9106 15.6717 16.971C15.3161 17.3015 15.0639 17.536 15.0124 17.5896C14.8969 17.7096 14.7791 17.823 14.666 17.9321C13.9672 18.6058 13.4431 19.111 14.695 19.936C15.2967 20.3325 15.7781 20.6603 16.2584 20.9874C16.7829 21.3446 17.306 21.7009 17.9829 22.1446C18.1554 22.2576 18.3201 22.375 18.4805 22.4894C19.0909 22.9246 19.6393 23.3155 20.3168 23.2532C20.7105 23.217 21.1172 22.8468 21.3237 21.7427C21.8118 19.1335 22.7712 13.4801 22.9929 11.1505C23.0123 10.9464 22.9879 10.6851 22.9683 10.5705C22.9486 10.4558 22.9076 10.2924 22.7586 10.1715C22.582 10.0283 22.3095 9.99805 22.1877 10.0001C21.6335 10.01 20.7834 10.3056 16.6919 12.0074Z"
              fill="currentColor" fill-opacity="0.8"/>

    </symbol>
    <symbol viewBox="0 0 32 32" id="whatsapp">
        <path fill-rule="evenodd" clip-rule="evenodd"
              d="M12.6 21.7C13.6 22.3 14.8 22.6 16 22.6C19.7 22.6 22.6 19.6 22.6 16.1C22.6 14.3 22 12.7 20.7 11.4C19.4 10.2 17.8 9.5 16 9.5C12.4 9.5 9.39999 12.5 9.39999 16.1C9.39999 17.3 9.7 18.5 10.4 19.6L10.6 19.9L9.89999 22.3L12.4 21.6L12.6 21.7ZM18.2 17C18.4 17 19.4 17.5 19.6 17.6C19.6311 17.6156 19.6623 17.6287 19.6931 17.6417C19.8599 17.7121 20.0156 17.7779 20.1 18.2C20.2 18.2 20.2 18.6 20 19.1C19.9 19.5 19.1 20 18.7 20C18.6322 20 18.5673 20.0057 18.498 20.0119C18.1582 20.0419 17.712 20.0814 16.3 19.5C14.5475 18.799 13.3325 17.0999 12.9913 16.6228C12.9431 16.5554 12.9124 16.5124 12.9 16.5C12.883 16.466 12.8485 16.4116 12.8031 16.3399C12.5819 15.9906 12.1 15.2297 12.1 14.4C12.1 13.4 12.6 12.9 12.8 12.7C13 12.5 13.2 12.5 13.3 12.5H13.7C13.8 12.5 14 12.5 14.1 12.8C14.3 13.2 14.7 14.2 14.7 14.3C14.7 14.3333 14.7111 14.3667 14.7222 14.4C14.7445 14.4667 14.7667 14.5333 14.7 14.6C14.65 14.65 14.625 14.7 14.6 14.75C14.575 14.8 14.55 14.85 14.5 14.9L14.2 15.2C14.1 15.3 14 15.4 14.1 15.6C14.2 15.8 14.6 16.5 15.2 17C15.8751 17.5907 16.4078 17.8254 16.6778 17.9443C16.7278 17.9663 16.7688 17.9844 16.8 18C17 18 17.1 18 17.2 17.9C17.25 17.8 17.375 17.65 17.5 17.5C17.625 17.35 17.75 17.2 17.8 17.1C17.9 16.9 18 16.9 18.2 17Z"
              fill="currentColor" fill-opacity="0.8"/>
        <path fill-rule="evenodd" clip-rule="evenodd"
              d="M0 16C0 7.16344 7.16344 0 16 0C24.8366 0 32 7.16344 32 16C32 24.8366 24.8366 32 16 32C7.16344 32 0 24.8366 0 16ZM16 8C18.1 8 20.1 8.8 21.6 10.3C23.1 11.8 24 13.8 24 15.9C24 20.3 20.4 23.9 16 23.9C14.7 23.9 13.4 23.5 12.2 22.9L8 24L9.10001 20C8.40001 18.8 8 17.4 8 16C8 11.6 11.6 8 16 8Z"
              fill="currentColor" fill-opacity="0.8"/>

    </symbol>
    <symbol viewBox="0 0 20 17" id="arrow__send">
        <path d="M19.2857 8.73389L1 8.73389" stroke="white" stroke-linecap="round" stroke-linejoin="round"/>
        <path d="M11.2856 16L19.2856 8.73392L11.2856 1.46784" stroke="white" stroke-linecap="round"
              stroke-linejoin="round"/>
    </symbol>
    <symbol viewBox="0 0 21 17" id="arrow__why">
        <path d="M19.2857 8.05469L1 8.05469" stroke="white" stroke-width="2" stroke-linecap="round"
              stroke-linejoin="round"/>
        <path d="M11.2856 15.1094L19.2856 8.05476L11.2856 1.00015" stroke="white" stroke-width="2"
              stroke-linecap="round" stroke-linejoin="round"/>
    </symbol>
    <symbol viewBox="0 0 113 75" id="user-check">
        <path d="M53.6751 86.6332C49.9084 82.8666 49.9084 77.2166 53.6751 73.4499C57.4417 69.6833 63.0917 69.6833 66.8584 73.4499L69.6834 76.2749L78.6292 66.3874C75.3334 64.5041 72.5084 64.5041 69.2126 64.5041C65.9167 64.0332 62.6209 63.0916 62.6209 60.2666C62.6209 57.4416 66.3876 58.3833 69.2126 53.2041C69.2126 53.2041 81.9251 18.8333 55.5584 18.8333C29.6626 18.8333 42.3751 53.2041 42.3751 53.2041C45.2001 57.9124 48.9667 56.9708 48.9667 60.2666C48.9667 63.5624 45.6709 63.5624 42.3751 64.0333C37.1959 64.5041 32.4876 63.5624 27.7792 72.0374C24.9542 77.2166 23.5417 94.1666 23.5417 94.1666H61.2084L53.6751 86.6332Z"
              fill="white"/>
        <path d="M78.6292 94.1667H88.5166C88.5166 94.1667 88.0458 89.9292 87.575 84.75L78.6292 94.1667Z" fill="white"/>
        <path d="M70.1541 94.1666C68.7416 94.1666 67.7999 93.6958 66.8582 92.7541L57.4416 83.3375C55.5582 81.4541 55.5582 78.6291 57.4416 76.7458C59.3249 74.8625 62.1499 74.8625 64.0332 76.7458L70.1541 82.8667L85.6916 65.9166C87.5749 64.0333 90.3999 64.0333 92.2832 65.4458C94.1666 67.3291 94.1666 70.1541 92.7541 72.0375L73.9207 92.2833C72.5082 93.6958 71.5666 94.1666 70.1541 94.1666Z"
              fill="white"/>
    </symbol>
    <symbol viewBox="0 0 113 75" id="drop">
        <path d="M56.5 18.8333C56.5 18.8333 32.9584 57.4416 32.9584 70.6249C32.9584 83.8083 43.3167 94.1666 56.5 94.1666C69.6834 94.1666 80.0417 83.8083 80.0417 70.6249C80.0417 57.4416 56.5 18.8333 56.5 18.8333ZM60.7375 88.9874L59.7959 84.2791C66.3875 82.8666 71.0959 76.2749 71.0959 69.2124C71.0959 67.7999 70.625 64.0332 67.3292 56.9708L71.5667 55.0874C74.3917 61.6791 75.3334 66.3874 75.3334 69.2124C75.3334 78.6291 69.2125 87.1041 60.7375 88.9874Z"
              fill="white"/>
    </symbol>
    <symbol viewBox="0 0 113 75" id="thumbs-up">
        <path d="M92.2833 57.4416C92.2833 57.4416 94.6374 55.0874 94.1666 49.9083C94.1666 42.8458 86.6332 42.3749 86.6332 42.3749H75.3333C74.3916 42.3749 73.9207 41.4333 73.9207 40.4916C75.3332 37.1958 77.6874 30.6041 76.7458 25.8958C75.3333 19.3041 69.6832 18.8333 67.7999 18.8333C67.3291 18.8333 66.8582 19.3041 66.8582 19.7749L62.1499 32.9583C62.1499 32.9583 62.1499 33.4291 61.6791 33.4291L49.4374 46.6124C48.9666 47.0833 48.4958 47.0833 48.0249 47.0833H47.0833V80.0416H48.0249C51.3208 80.0416 63.0916 89.4583 73.4499 89.4583C83.8083 89.4583 86.1624 88.0458 88.0457 84.7499C89.9291 81.4541 88.5166 78.6291 88.5166 78.6291C88.5166 78.6291 90.8707 77.2166 91.3416 73.9208C91.8124 70.6249 90.8707 68.7416 90.8707 68.7416C90.8707 68.7416 93.2249 66.8583 93.2249 63.0916C93.6957 58.8541 92.2833 57.4416 92.2833 57.4416V57.4416Z"
              fill="white"/>
        <path d="M18.8333 84.7499H42.3749V47.0833H18.8333V84.7499ZM30.6041 68.2708C33.4291 68.2708 35.3124 70.1541 35.3124 72.9791C35.3124 75.8041 33.4291 77.6874 30.6041 77.6874C27.7791 77.6874 25.8958 75.8041 25.8958 72.9791C25.8958 70.1541 27.7791 68.2708 30.6041 68.2708Z"
              fill="white"/>
    </symbol>
    <symbol viewBox="0 0 113 75" id="truck">
        <path d="M47.0834 23.5417H94.1667V56.5001H47.0834V23.5417Z" fill="#FCFCFC"/>
        <path d="M89.4583 75.3334C89.4583 80.5361 85.2444 84.7501 80.0417 84.7501C74.839 84.7501 70.625 80.5361 70.625 75.3334C70.625 70.1307 74.839 65.9167 80.0417 65.9167C85.2444 65.9167 89.4583 70.1307 89.4583 75.3334Z"
              fill="#FCFCFC"/>
        <path d="M80.0416 61.2083C86.1625 61.2083 91.3416 64.9749 93.225 70.6249H94.1666V61.2083H80.0416Z"
              fill="#FCFCFC"/>
        <path d="M42.375 32.9583H23.5417L18.8334 51.7916V70.6249H24.4834C26.3667 64.9749 31.5459 61.2083 37.6667 61.2083C43.7875 61.2083 48.9667 64.9749 50.85 70.6249H66.8584C68.7417 64.9749 73.9209 61.2083 80.0417 61.2083H42.375V32.9583ZM37.6667 51.7916H23.5417L27.3084 37.6666H37.6667V51.7916Z"
              fill="#FCFCFC"/>
        <path d="M47.0833 75.3334C47.0833 80.5361 42.8694 84.7501 37.6667 84.7501C32.464 84.7501 28.25 80.5361 28.25 75.3334C28.25 70.1307 32.464 65.9167 37.6667 65.9167C42.8694 65.9167 47.0833 70.1307 47.0833 75.3334Z"
              fill="#FCFCFC"/>
    </symbol>
    <symbol viewBox="0 0 20 16" id="arrow__product">
        <path d="M19.2857 7.99396L1 7.99396" stroke="white" stroke-linecap="round" stroke-linejoin="round"/>
        <path d="M11.2856 14.988L19.2856 7.99398L11.2856 0.999925" stroke="white" stroke-linecap="round"
              stroke-linejoin="round"/>
    </symbol>
    <symbol width="14" height="28" id="brands-prev">
        <path d="M12.3589 1.55811L1.00005 14.4295L12.3589 27.3008" stroke="#FF4401" stroke-width="2"
              stroke-linecap="round" stroke-linejoin="round"/>
    </symbol>
    <symbol width="14" height="28" id="brands-next">
        <path d="M1 26.7427L12.3588 13.8713L1 0.99998" stroke="#FF4401" stroke-width="2" stroke-linecap="round"
              stroke-linejoin="round"/>
    </symbol>

    <symbol viewBox="0 0 21 33" id="header-tel">
        <path d="M16.0417 0H4.375C1.95417 0 0 1.95417 0 4.375V27.7083C0 30.1292 1.95417 32.0833 4.375 32.0833H16.0417C18.4625 32.0833 20.4167 30.1292 20.4167 27.7083V4.375C20.4167 1.95417 18.4625 0 16.0417 0ZM13.125 29.1667H7.29167V27.7083H13.125V29.1667ZM17.8646 24.7917H2.55208V4.375H17.8646V24.7917Z" fill="white"/>
    </symbol>

    <symbol viewBox="0 0 19 19" id="popup-close">
        <path d="M9.49958 7.43799L16.7183 0.219238L18.7804 2.28132L11.5617 9.50007L18.7804 16.7188L16.7183 18.7809L9.49958 11.5622L2.28083 18.7809L0.21875 16.7188L7.4375 9.50007L0.21875 2.28132L2.28083 0.219238L9.49958 7.43799Z"
              fill="currentColor"/>
    </symbol>
</svg>